<?xml version="1.0" encoding="UTF-8"?>
<!DOCTYPE svg PUBLIC "-//W3C//DTD SVG 1.1//EN" "http://www.w3.org/Graphics/SVG/1.1/DTD/svg11.dtd">
<!-- Creator: CorelDRAW 2019 (64-Bit) -->
<svg xmlns="http://www.w3.org/2000/svg" xml:space="preserve" width="1366px" height="80px" version="1.1" style="shape-rendering:geometricPrecision; text-rendering:geometricPrecision; image-rendering:optimizeQuality; fill-rule:evenodd; clip-rule:evenodd"
viewBox="0 0 1366 80"
 xmlns:xlink="http://www.w3.org/1999/xlink"
 xmlns:xodm="http://www.corel.com/coreldraw/odm/2003">
 <defs>
  <style type="text/css">
   <![CDATA[
    .fil7 {fill:#F7A821;fill-rule:nonzero}
    .fil9 {fill:#EE781C;fill-rule:nonzero}
    .fil8 {fill:#D44026;fill-rule:nonzero}
    .fil5 {fill:#C5E5EE;fill-rule:nonzero}
    .fil4 {fill:#9BD5E4;fill-rule:nonzero}
    .fil1 {fill:#5A727F;fill-rule:nonzero}
    .fil6 {fill:#4F5F69;fill-rule:nonzero}
    .fil0 {fill:#434E55;fill-rule:nonzero}
    .fil2 {fill:#2787C8;fill-rule:nonzero}
    .fil3 {fill:#1F5295;fill-rule:nonzero}
   ]]>
  </style>
 </defs>
 <g id="Слой_x0020_1">
  <metadata id="CorelCorpID_0Corel-Layer"/>
  <path class="fil0" d="M386.79 64.97c0,3.26 2.64,5.89 5.89,5.89 3.25,0 5.89,-2.63 5.89,-5.89 0,-3.25 -2.64,-5.88 -5.89,-5.88 -3.25,0 -5.89,2.63 -5.89,5.88z"/>
  <path class="fil0" d="M401.44 64.97c0,3.26 2.64,5.89 5.89,5.89 3.25,0 5.89,-2.63 5.89,-5.89 0,-3.25 -2.64,-5.88 -5.89,-5.88 -3.25,0 -5.89,2.63 -5.89,5.88z"/>
  <path class="fil1" d="M404.12 64.97c0,1.78 1.44,3.21 3.21,3.21 1.77,0 3.21,-1.43 3.21,-3.21 0,-1.77 -1.44,-3.21 -3.21,-3.21 -1.77,0 -3.21,1.44 -3.21,3.21z"/>
  <path class="fil1" d="M389.47 64.97c0,1.78 1.44,3.21 3.21,3.21 1.77,0 3.21,-1.43 3.21,-3.21 0,-1.77 -1.44,-3.21 -3.21,-3.21 -1.77,0 -3.21,1.44 -3.21,3.21z"/>
  <path class="fil0" d="M277.16 64.97c0,3.26 2.64,5.89 5.89,5.89 3.25,0 5.89,-2.63 5.89,-5.89 0,-3.25 -2.64,-5.88 -5.89,-5.88 -3.25,0 -5.89,2.63 -5.89,5.88z"/>
  <path class="fil0" d="M291.81 64.97c0,3.26 2.64,5.89 5.89,5.89 3.25,0 5.89,-2.63 5.89,-5.89 0,-3.25 -2.64,-5.88 -5.89,-5.88 -3.25,0 -5.89,2.63 -5.89,5.88z"/>
  <path class="fil1" d="M294.49 64.97c0,1.78 1.44,3.21 3.21,3.21 1.77,0 3.21,-1.43 3.21,-3.21 0,-1.77 -1.44,-3.21 -3.21,-3.21 -1.77,0 -3.21,1.44 -3.21,3.21z"/>
  <path class="fil1" d="M279.84 64.97c0,1.78 1.44,3.21 3.21,3.21 1.77,0 3.21,-1.43 3.21,-3.21 0,-1.77 -1.44,-3.21 -3.21,-3.21 -1.77,0 -3.21,1.44 -3.21,3.21z"/>
  <path class="fil2" d="M240.27 12.38l209.84 0c2.91,0 5.27,2.36 5.27,5.27l0 47.8c0,2.91 -2.36,5.26 -5.27,5.26l-35.81 0 -4.8 -6.4 -18.98 0 -4.81 6.4 -81.04 0 -4.8 -6.4 -18.98 0 -4.8 6.4 -35.82 0c-2.91,0 -5.26,-2.35 -5.26,-5.26l0 -47.8c0,-2.91 2.35,-5.27 5.26,-5.27z"/>
  <path class="fil0" d="M611.79 64.97c0,3.26 2.64,5.89 5.89,5.89 3.25,0 5.89,-2.63 5.89,-5.89 0,-3.25 -2.64,-5.88 -5.89,-5.88 -3.25,0 -5.89,2.63 -5.89,5.88z"/>
  <path class="fil0" d="M626.44 64.97c0,3.26 2.64,5.89 5.89,5.89 3.25,0 5.89,-2.63 5.89,-5.89 0,-3.25 -2.64,-5.88 -5.89,-5.88 -3.25,0 -5.89,2.63 -5.89,5.88z"/>
  <path class="fil1" d="M629.12 64.97c0,1.78 1.44,3.21 3.21,3.21 1.77,0 3.21,-1.43 3.21,-3.21 0,-1.77 -1.44,-3.21 -3.21,-3.21 -1.77,0 -3.21,1.44 -3.21,3.21z"/>
  <path class="fil1" d="M614.47 64.97c0,1.78 1.44,3.21 3.21,3.21 1.77,0 3.21,-1.43 3.21,-3.21 0,-1.77 -1.44,-3.21 -3.21,-3.21 -1.77,0 -3.21,1.44 -3.21,3.21z"/>
  <path class="fil0" d="M502.16 64.97c0,3.26 2.64,5.89 5.89,5.89 3.25,0 5.89,-2.63 5.89,-5.89 0,-3.25 -2.64,-5.88 -5.89,-5.88 -3.25,0 -5.89,2.63 -5.89,5.88z"/>
  <path class="fil0" d="M516.81 64.97c0,3.26 2.64,5.89 5.89,5.89 3.25,0 5.89,-2.63 5.89,-5.89 0,-3.25 -2.64,-5.88 -5.89,-5.88 -3.25,0 -5.89,2.63 -5.89,5.88z"/>
  <path class="fil1" d="M519.49 64.97c0,1.78 1.44,3.21 3.21,3.21 1.77,0 3.21,-1.43 3.21,-3.21 0,-1.77 -1.44,-3.21 -3.21,-3.21 -1.77,0 -3.21,1.44 -3.21,3.21z"/>
  <path class="fil1" d="M504.84 64.97c0,1.78 1.44,3.21 3.21,3.21 1.77,0 3.21,-1.43 3.21,-3.21 0,-1.77 -1.44,-3.21 -3.21,-3.21 -1.77,0 -3.21,1.44 -3.21,3.21z"/>
  <path class="fil2" d="M463.85 12.38l171.95 0c24.62,0 44.58,19.96 44.58,44.57l0 9.92c0,2.12 -1.72,3.84 -3.85,3.84l-37.23 0 -4.8 -6.4 -18.98 0 -4.81 6.4 -81.04 0 -4.8 -6.4 -18.98 0 -4.8 6.4 -37.24 0c-2.12,0 -3.84,-1.72 -3.84,-3.84l0 -50.65c0,-2.12 1.72,-3.84 3.84,-3.84z"/>
  <path class="fil3" d="M278.12 40.76l134.15 0c1.69,0 3.07,-1.37 3.07,-3.07l0 -15.31c0,-1.7 -1.38,-3.08 -3.07,-3.08l-134.15 0c-1.7,0 -3.08,1.38 -3.08,3.08l0 15.31c0,1.7 1.38,3.07 3.08,3.07z"/>
  <path class="fil3" d="M425.2 19.3l16.48 0c1.75,0 3.16,1.42 3.16,3.16l0 40.96c0,1.74 -1.41,3.16 -3.16,3.16l-16.48 0c-1.74,0 -3.16,-1.42 -3.16,-3.16l0 -40.96c0,-1.74 1.42,-3.16 3.16,-3.16z"/>
  <path class="fil4" d="M428.79 24.67l9.31 0c1.41,0 2.56,1.14 2.56,2.55l0 5.62c0,1.41 -1.15,2.56 -2.56,2.56l-9.31 0c-1.42,0 -2.56,-1.15 -2.56,-2.56l0 -5.62c0,-1.41 1.14,-2.55 2.56,-2.55z"/>
  <path class="fil5" d="M436.12 24.67l4.54 7.45 0 0.72c0,1.41 -1.15,2.56 -2.56,2.56l-1.6 0 -6.53 -10.73 6.15 0z"/>
  <path class="fil3" d="M248.7 19.3l16.48 0c1.74,0 3.16,1.42 3.16,3.16l0 40.96c0,1.74 -1.42,3.16 -3.16,3.16l-16.48 0c-1.75,0 -3.16,-1.42 -3.16,-3.16l0 -40.96c0,-1.74 1.41,-3.16 3.16,-3.16z"/>
  <path class="fil4" d="M252.28 24.67l9.32 0c1.41,0 2.55,1.14 2.55,2.55l0 5.62c0,1.41 -1.14,2.56 -2.55,2.56l-9.32 0c-1.41,0 -2.56,-1.15 -2.56,-2.56l0 -5.62c0,-1.41 1.15,-2.55 2.56,-2.55z"/>
  <path class="fil4" d="M395.35 24.67l9.31 0c1.42,0 2.56,1.14 2.56,2.55l0 5.62c0,1.41 -1.14,2.56 -2.56,2.56l-9.31 0c-1.41,0 -2.56,-1.15 -2.56,-2.56l0 -5.62c0,-1.41 1.15,-2.55 2.56,-2.55z"/>
  <path class="fil4" d="M373.42 24.67l9.32 0c1.41,0 2.55,1.14 2.55,2.55l0 5.62c0,1.41 -1.14,2.56 -2.55,2.56l-9.32 0c-1.41,0 -2.55,-1.15 -2.55,-2.56l0 -5.62c0,-1.41 1.14,-2.55 2.55,-2.55z"/>
  <path class="fil4" d="M351.5 24.67l9.31 0c1.41,0 2.56,1.14 2.56,2.55l0 5.62c0,1.41 -1.15,2.56 -2.56,2.56l-9.31 0c-1.42,0 -2.56,-1.15 -2.56,-2.56l0 -5.62c0,-1.41 1.14,-2.55 2.56,-2.55z"/>
  <path class="fil4" d="M329.57 24.67l9.32 0c1.41,0 2.55,1.14 2.55,2.55l0 5.62c0,1.41 -1.14,2.56 -2.55,2.56l-9.32 0c-1.41,0 -2.56,-1.15 -2.56,-2.56l0 -5.62c0,-1.41 1.15,-2.55 2.56,-2.55z"/>
  <path class="fil4" d="M307.64 24.67l9.32 0c1.41,0 2.56,1.14 2.56,2.55l0 5.62c0,1.41 -1.15,2.56 -2.56,2.56l-9.32 0c-1.41,0 -2.55,-1.15 -2.55,-2.56l0 -5.62c0,-1.41 1.14,-2.55 2.55,-2.55z"/>
  <path class="fil4" d="M285.72 24.67l9.31 0c1.42,0 2.56,1.14 2.56,2.55l0 5.62c0,1.41 -1.14,2.56 -2.56,2.56l-9.31 0c-1.41,0 -2.56,-1.15 -2.56,-2.56l0 -5.62c0,-1.41 1.15,-2.55 2.56,-2.55z"/>
  <path class="fil4" d="M395.35 24.67l9.31 0c1.42,0 2.56,1.14 2.56,2.55l0 5.62c0,1.41 -1.14,2.56 -2.56,2.56l-9.31 0c-1.41,0 -2.56,-1.15 -2.56,-2.56l0 -5.62c0,-1.41 1.15,-2.55 2.56,-2.55z"/>
  <path class="fil5" d="M402.68 24.67l4.54 7.45 0 0.72c0,1.41 -1.14,2.56 -2.56,2.56l-1.59 0 -6.54 -10.73 6.15 0z"/>
  <path class="fil4" d="M373.42 24.67l9.32 0c1.41,0 2.55,1.14 2.55,2.55l0 5.62c0,1.41 -1.14,2.56 -2.55,2.56l-9.32 0c-1.41,0 -2.55,-1.15 -2.55,-2.56l0 -5.62c0,-1.41 1.14,-2.55 2.55,-2.55z"/>
  <path class="fil5" d="M380.76 24.67l4.53 7.45 0 0.72c0,1.41 -1.14,2.56 -2.55,2.56l-1.6 0 -6.54 -10.73 6.16 0z"/>
  <path class="fil4" d="M351.5 24.67l9.31 0c1.41,0 2.56,1.14 2.56,2.55l0 5.62c0,1.41 -1.15,2.56 -2.56,2.56l-9.31 0c-1.42,0 -2.56,-1.15 -2.56,-2.56l0 -5.62c0,-1.41 1.14,-2.55 2.56,-2.55z"/>
  <path class="fil5" d="M358.83 24.67l4.54 7.45 0 0.72c0,1.41 -1.15,2.56 -2.56,2.56l-1.6 0 -6.53 -10.73 6.15 0z"/>
  <path class="fil4" d="M329.57 24.67l9.32 0c1.41,0 2.55,1.14 2.55,2.55l0 5.62c0,1.41 -1.14,2.56 -2.55,2.56l-9.32 0c-1.41,0 -2.56,-1.15 -2.56,-2.56l0 -5.62c0,-1.41 1.15,-2.55 2.56,-2.55z"/>
  <path class="fil5" d="M336.9 24.67l4.54 7.45 0 0.72c0,1.41 -1.14,2.56 -2.55,2.56l-1.6 0 -6.54 -10.73 6.15 0z"/>
  <path class="fil4" d="M307.64 24.67l9.32 0c1.41,0 2.56,1.14 2.56,2.55l0 5.62c0,1.41 -1.15,2.56 -2.56,2.56l-9.32 0c-1.41,0 -2.55,-1.15 -2.55,-2.56l0 -5.62c0,-1.41 1.14,-2.55 2.55,-2.55z"/>
  <path class="fil5" d="M314.98 24.67l4.54 7.45 0 0.72c0,1.41 -1.15,2.56 -2.56,2.56l-1.6 0 -6.53 -10.73 6.15 0z"/>
  <path class="fil4" d="M285.72 24.67l9.31 0c1.42,0 2.56,1.14 2.56,2.55l0 5.62c0,1.41 -1.14,2.56 -2.56,2.56l-9.31 0c-1.41,0 -2.56,-1.15 -2.56,-2.56l0 -5.62c0,-1.41 1.15,-2.55 2.56,-2.55z"/>
  <path class="fil5" d="M293.05 24.67l4.54 7.45 0 0.72c0,1.41 -1.14,2.56 -2.56,2.56l-1.59 0 -6.54 -10.73 6.15 0z"/>
  <path class="fil4" d="M252.28 24.67l9.32 0c1.41,0 2.55,1.14 2.55,2.55l0 5.62c0,1.41 -1.14,2.56 -2.55,2.56l-9.32 0c-1.41,0 -2.56,-1.15 -2.56,-2.56l0 -5.62c0,-1.41 1.15,-2.55 2.56,-2.55z"/>
  <path class="fil5" d="M259.61 24.67l4.54 7.45 0 0.72c0,1.41 -1.14,2.56 -2.55,2.56l-1.6 0 -6.54 -10.73 6.15 0z"/>
  <path class="fil4" d="M428.79 24.67l9.31 0c1.41,0 2.56,1.14 2.56,2.55l0 5.62c0,1.41 -1.15,2.56 -2.56,2.56l-9.31 0c-1.42,0 -2.56,-1.15 -2.56,-2.56l0 -5.62c0,-1.41 1.14,-2.55 2.56,-2.55z"/>
  <path class="fil5" d="M436.12 24.67l4.54 7.45 0 0.72c0,1.41 -1.15,2.56 -2.56,2.56l-1.6 0 -6.53 -10.73 6.15 0z"/>
  <polygon class="fil0" points="455.28,57.2 235.01,57.2 235.01,49.89 455.28,49.89 "/>
  <path class="fil3" d="M507.48 40.76l63.02 0c1.49,0 2.71,-1.21 2.71,-2.71l0 -16.03c0,-1.5 -1.22,-2.72 -2.71,-2.72l-63.02 0c-1.5,0 -2.72,1.22 -2.72,2.72l0 16.03c0,1.5 1.22,2.71 2.72,2.71z"/>
  <path class="fil4" d="M677.59 41.43l-40.12 0c-0.95,0 -1.84,-0.49 -2.35,-1.29l-11.44 -17.98c-0.79,-1.23 0.1,-2.86 1.57,-2.86l34.4 0c8.16,5.19 14.53,12.94 17.94,22.13z"/>
  <path class="fil4" d="M628.15 38.67l-11.79 -18.53c-0.33,-0.52 -0.9,-0.84 -1.52,-0.84l-6.6 0c-0.99,0 -1.8,0.81 -1.8,1.8l0 18.53c0,1 0.81,1.8 1.8,1.8l18.4 0c1.41,0 2.27,-1.56 1.51,-2.76z"/>
  <path class="fil3" d="M580.77 19.3l16.48 0c1.74,0 3.16,1.42 3.16,3.16l0 40.96c0,1.74 -1.42,3.16 -3.16,3.16l-16.48 0c-1.75,0 -3.16,-1.42 -3.16,-3.16l0 -40.96c0,-1.74 1.41,-3.16 3.16,-3.16z"/>
  <path class="fil4" d="M584.35 24.67l9.32 0c1.41,0 2.55,1.14 2.55,2.55l0 5.62c0,1.41 -1.14,2.56 -2.55,2.56l-9.32 0c-1.41,0 -2.56,-1.15 -2.56,-2.56l0 -5.62c0,-1.41 1.15,-2.55 2.56,-2.55z"/>
  <path class="fil3" d="M472.99 19.3l16.48 0c1.75,0 3.16,1.42 3.16,3.16l0 40.96c0,1.74 -1.41,3.16 -3.16,3.16l-16.48 0c-1.74,0 -3.15,-1.42 -3.15,-3.16l0 -40.96c0,-1.74 1.41,-3.16 3.15,-3.16z"/>
  <path class="fil4" d="M476.58 24.67l9.31 0c1.41,0 2.56,1.14 2.56,2.55l0 5.62c0,1.41 -1.15,2.56 -2.56,2.56l-9.31 0c-1.42,0 -2.56,-1.15 -2.56,-2.56l0 -5.62c0,-1.41 1.14,-2.55 2.56,-2.55z"/>
  <path class="fil5" d="M483.91 24.67l4.54 7.45 0 0.72c0,1.41 -1.15,2.56 -2.56,2.56l-1.6 0 -6.53 -10.73 6.15 0z"/>
  <path class="fil4" d="M556.19 24.67l9.32 0c1.41,0 2.55,1.14 2.55,2.55l0 5.62c0,1.41 -1.14,2.56 -2.55,2.56l-9.32 0c-1.41,0 -2.56,-1.15 -2.56,-2.56l0 -5.62c0,-1.41 1.15,-2.55 2.56,-2.55z"/>
  <path class="fil4" d="M534.4 24.67l9.31 0c1.42,0 2.56,1.14 2.56,2.55l0 5.62c0,1.41 -1.14,2.56 -2.56,2.56l-9.31 0c-1.41,0 -2.56,-1.15 -2.56,-2.56l0 -5.62c0,-1.41 1.15,-2.55 2.56,-2.55z"/>
  <polygon class="fil0" points="680.28,57.2 460.01,57.2 460.01,49.89 680.28,49.89 "/>
  <polygon class="fil5" points="666.28,41.43 660.13,41.43 646.65,19.3 652.8,19.3 "/>
  <path class="fil5" d="M606.44 21.1c0,-0.99 0.81,-1.8 1.8,-1.8l2.97 0 13.48 22.13 -6.15 0 -12.1 -19.86 0 -0.47z"/>
  <path class="fil5" d="M591.88 24.67l4.34 7.12 0 1.05c0,1.41 -1.14,2.56 -2.55,2.56l-1.4 0 -6.54 -10.73 6.15 0z"/>
  <path class="fil5" d="M563 24.67l5.05 8.29c-0.06,1.36 -1.17,2.44 -2.54,2.44l-2.13 0 -6.53 -10.73 6.15 0z"/>
  <path class="fil5" d="M541.47 24.67l4.8 7.88 0 0.29c0,1.41 -1.14,2.56 -2.56,2.56l-1.86 0 -6.53 -10.73 6.15 0z"/>
  <path class="fil4" d="M512.61 24.67l9.31 0c1.41,0 2.56,1.14 2.56,2.55l0 5.62c0,1.41 -1.15,2.56 -2.56,2.56l-9.31 0c-1.41,0 -2.56,-1.15 -2.56,-2.56l0 -5.62c0,-1.41 1.15,-2.55 2.56,-2.55z"/>
  <path class="fil5" d="M519.94 24.67l4.54 7.45 0 0.72c0,1.41 -1.15,2.56 -2.56,2.56l-1.59 0 -6.54 -10.73 6.15 0z"/>
  <polygon class="fil5" points="657.32,41.43 647.56,41.43 634.08,19.3 643.84,19.3 "/>
  <polygon class="fil6" points="460.01,63.17 455.38,63.17 455.38,19.93 460.01,19.93 "/>
  <path class="fil0" d="M161.79 64.97c0,3.26 2.64,5.89 5.89,5.89 3.25,0 5.89,-2.63 5.89,-5.89 0,-3.25 -2.64,-5.88 -5.89,-5.88 -3.25,0 -5.89,2.63 -5.89,5.88z"/>
  <path class="fil0" d="M176.44 64.97c0,3.26 2.64,5.89 5.89,5.89 3.25,0 5.89,-2.63 5.89,-5.89 0,-3.25 -2.64,-5.88 -5.89,-5.88 -3.25,0 -5.89,2.63 -5.89,5.88z"/>
  <path class="fil1" d="M179.12 64.97c0,1.78 1.44,3.21 3.21,3.21 1.77,0 3.21,-1.43 3.21,-3.21 0,-1.77 -1.44,-3.21 -3.21,-3.21 -1.77,0 -3.21,1.44 -3.21,3.21z"/>
  <path class="fil1" d="M164.47 64.97c0,1.78 1.44,3.21 3.21,3.21 1.77,0 3.21,-1.43 3.21,-3.21 0,-1.77 -1.44,-3.21 -3.21,-3.21 -1.77,0 -3.21,1.44 -3.21,3.21z"/>
  <path class="fil0" d="M52.16 64.97c0,3.26 2.64,5.89 5.89,5.89 3.25,0 5.89,-2.63 5.89,-5.89 0,-3.25 -2.64,-5.88 -5.89,-5.88 -3.25,0 -5.89,2.63 -5.89,5.88z"/>
  <path class="fil0" d="M66.81 64.97c0,3.26 2.64,5.89 5.89,5.89 3.25,0 5.89,-2.63 5.89,-5.89 0,-3.25 -2.64,-5.88 -5.89,-5.88 -3.25,0 -5.89,2.63 -5.89,5.88z"/>
  <path class="fil1" d="M69.49 64.97c0,1.78 1.44,3.21 3.21,3.21 1.77,0 3.21,-1.43 3.21,-3.21 0,-1.77 -1.44,-3.21 -3.21,-3.21 -1.77,0 -3.21,1.44 -3.21,3.21z"/>
  <path class="fil1" d="M54.84 64.97c0,1.78 1.44,3.21 3.21,3.21 1.77,0 3.21,-1.43 3.21,-3.21 0,-1.77 -1.44,-3.21 -3.21,-3.21 -1.77,0 -3.21,1.44 -3.21,3.21z"/>
  <path class="fil2" d="M15.27 12.38l209.84 0c2.91,0 5.26,2.36 5.26,5.27l0 47.8c0,2.91 -2.35,5.26 -5.26,5.26l-35.81 0 -4.8 -6.4 -18.98 0 -4.81 6.4 -81.04 0 -4.8 -6.4 -18.99 0 -4.8 6.4 -35.81 0c-2.91,0 -5.26,-2.35 -5.26,-5.26l0 -47.8c0,-2.91 2.35,-5.27 5.26,-5.27z"/>
  <path class="fil3" d="M53.12 40.76l134.15 0c1.69,0 3.07,-1.37 3.07,-3.07l0 -15.31c0,-1.7 -1.38,-3.08 -3.07,-3.08l-134.15 0c-1.7,0 -3.08,1.38 -3.08,3.08l0 15.31c0,1.7 1.38,3.07 3.08,3.07z"/>
  <path class="fil3" d="M200.2 19.3l16.48 0c1.75,0 3.16,1.42 3.16,3.16l0 40.96c0,1.74 -1.41,3.16 -3.16,3.16l-16.48 0c-1.74,0 -3.16,-1.42 -3.16,-3.16l0 -40.96c0,-1.74 1.42,-3.16 3.16,-3.16z"/>
  <path class="fil4" d="M203.79 24.67l9.31 0c1.41,0 2.56,1.14 2.56,2.55l0 5.62c0,1.41 -1.15,2.56 -2.56,2.56l-9.31 0c-1.42,0 -2.56,-1.15 -2.56,-2.56l0 -5.62c0,-1.41 1.14,-2.55 2.56,-2.55z"/>
  <path class="fil5" d="M211.12 24.67l4.54 7.45 0 0.72c0,1.41 -1.15,2.56 -2.56,2.56l-1.6 0 -6.53 -10.73 6.15 0z"/>
  <path class="fil3" d="M23.7 19.3l16.48 0c1.74,0 3.16,1.42 3.16,3.16l0 40.96c0,1.74 -1.42,3.16 -3.16,3.16l-16.48 0c-1.75,0 -3.16,-1.42 -3.16,-3.16l0 -40.96c0,-1.74 1.41,-3.16 3.16,-3.16z"/>
  <path class="fil4" d="M27.28 24.67l9.32 0c1.41,0 2.55,1.14 2.55,2.55l0 5.62c0,1.41 -1.14,2.56 -2.55,2.56l-9.32 0c-1.41,0 -2.56,-1.15 -2.56,-2.56l0 -5.62c0,-1.41 1.15,-2.55 2.56,-2.55z"/>
  <path class="fil4" d="M170.35 24.67l9.31 0c1.41,0 2.56,1.14 2.56,2.55l0 5.62c0,1.41 -1.15,2.56 -2.56,2.56l-9.31 0c-1.41,0 -2.56,-1.15 -2.56,-2.56l0 -5.62c0,-1.41 1.15,-2.55 2.56,-2.55z"/>
  <path class="fil4" d="M148.42 24.67l9.32 0c1.41,0 2.55,1.14 2.55,2.55l0 5.62c0,1.41 -1.14,2.56 -2.55,2.56l-9.32 0c-1.41,0 -2.55,-1.15 -2.55,-2.56l0 -5.62c0,-1.41 1.14,-2.55 2.55,-2.55z"/>
  <path class="fil4" d="M126.49 24.67l9.32 0c1.41,0 2.56,1.14 2.56,2.55l0 5.62c0,1.41 -1.15,2.56 -2.56,2.56l-9.32 0c-1.41,0 -2.55,-1.15 -2.55,-2.56l0 -5.62c0,-1.41 1.14,-2.55 2.55,-2.55z"/>
  <path class="fil4" d="M104.57 24.67l9.32 0c1.41,0 2.55,1.14 2.55,2.55l0 5.62c0,1.41 -1.14,2.56 -2.55,2.56l-9.32 0c-1.41,0 -2.56,-1.15 -2.56,-2.56l0 -5.62c0,-1.41 1.15,-2.55 2.56,-2.55z"/>
  <path class="fil4" d="M82.64 24.67l9.32 0c1.41,0 2.56,1.14 2.56,2.55l0 5.62c0,1.41 -1.15,2.56 -2.56,2.56l-9.32 0c-1.41,0 -2.55,-1.15 -2.55,-2.56l0 -5.62c0,-1.41 1.14,-2.55 2.55,-2.55z"/>
  <path class="fil4" d="M60.72 24.67l9.31 0c1.41,0 2.56,1.14 2.56,2.55l0 5.62c0,1.41 -1.15,2.56 -2.56,2.56l-9.31 0c-1.41,0 -2.56,-1.15 -2.56,-2.56l0 -5.62c0,-1.41 1.15,-2.55 2.56,-2.55z"/>
  <path class="fil4" d="M170.35 24.67l9.31 0c1.41,0 2.56,1.14 2.56,2.55l0 5.62c0,1.41 -1.15,2.56 -2.56,2.56l-9.31 0c-1.41,0 -2.56,-1.15 -2.56,-2.56l0 -5.62c0,-1.41 1.15,-2.55 2.56,-2.55z"/>
  <path class="fil5" d="M177.68 24.67l4.54 7.45 0 0.72c0,1.41 -1.15,2.56 -2.56,2.56l-1.59 0 -6.54 -10.73 6.15 0z"/>
  <path class="fil4" d="M148.42 24.67l9.32 0c1.41,0 2.55,1.14 2.55,2.55l0 5.62c0,1.41 -1.14,2.56 -2.55,2.56l-9.32 0c-1.41,0 -2.55,-1.15 -2.55,-2.56l0 -5.62c0,-1.41 1.14,-2.55 2.55,-2.55z"/>
  <path class="fil5" d="M155.76 24.67l4.53 7.45 0 0.72c0,1.41 -1.14,2.56 -2.55,2.56l-1.6 0 -6.54 -10.73 6.16 0z"/>
  <path class="fil4" d="M126.49 24.67l9.32 0c1.41,0 2.56,1.14 2.56,2.55l0 5.62c0,1.41 -1.15,2.56 -2.56,2.56l-9.32 0c-1.41,0 -2.55,-1.15 -2.55,-2.56l0 -5.62c0,-1.41 1.14,-2.55 2.55,-2.55z"/>
  <path class="fil5" d="M133.83 24.67l4.54 7.45 0 0.72c0,1.41 -1.15,2.56 -2.56,2.56l-1.6 0 -6.53 -10.73 6.15 0z"/>
  <path class="fil4" d="M104.57 24.67l9.32 0c1.41,0 2.55,1.14 2.55,2.55l0 5.62c0,1.41 -1.14,2.56 -2.55,2.56l-9.32 0c-1.41,0 -2.56,-1.15 -2.56,-2.56l0 -5.62c0,-1.41 1.15,-2.55 2.56,-2.55z"/>
  <path class="fil5" d="M111.9 24.67l4.54 7.45 0 0.72c0,1.41 -1.14,2.56 -2.55,2.56l-1.6 0 -6.54 -10.73 6.15 0z"/>
  <path class="fil4" d="M82.64 24.67l9.32 0c1.41,0 2.56,1.14 2.56,2.55l0 5.62c0,1.41 -1.15,2.56 -2.56,2.56l-9.32 0c-1.41,0 -2.55,-1.15 -2.55,-2.56l0 -5.62c0,-1.41 1.14,-2.55 2.55,-2.55z"/>
  <path class="fil5" d="M89.98 24.67l4.54 7.45 0 0.72c0,1.41 -1.15,2.56 -2.56,2.56l-1.6 0 -6.53 -10.73 6.15 0z"/>
  <path class="fil4" d="M60.72 24.67l9.31 0c1.41,0 2.56,1.14 2.56,2.55l0 5.62c0,1.41 -1.15,2.56 -2.56,2.56l-9.31 0c-1.41,0 -2.56,-1.15 -2.56,-2.56l0 -5.62c0,-1.41 1.15,-2.55 2.56,-2.55z"/>
  <path class="fil5" d="M68.05 24.67l4.54 7.45 0 0.72c0,1.41 -1.15,2.56 -2.56,2.56l-1.59 0 -6.54 -10.73 6.15 0z"/>
  <path class="fil4" d="M27.28 24.67l9.32 0c1.41,0 2.55,1.14 2.55,2.55l0 5.62c0,1.41 -1.14,2.56 -2.55,2.56l-9.32 0c-1.41,0 -2.56,-1.15 -2.56,-2.56l0 -5.62c0,-1.41 1.15,-2.55 2.56,-2.55z"/>
  <path class="fil5" d="M34.61 24.67l4.54 7.45 0 0.72c0,1.41 -1.14,2.56 -2.55,2.56l-1.6 0 -6.54 -10.73 6.15 0z"/>
  <path class="fil4" d="M203.79 24.67l9.31 0c1.41,0 2.56,1.14 2.56,2.55l0 5.62c0,1.41 -1.15,2.56 -2.56,2.56l-9.31 0c-1.42,0 -2.56,-1.15 -2.56,-2.56l0 -5.62c0,-1.41 1.14,-2.55 2.56,-2.55z"/>
  <path class="fil5" d="M211.12 24.67l4.54 7.45 0 0.72c0,1.41 -1.15,2.56 -2.56,2.56l-1.6 0 -6.53 -10.73 6.15 0z"/>
  <polygon class="fil0" points="230.28,57.2 10.01,57.2 10.01,49.89 230.28,49.89 "/>
  <polygon class="fil6" points="235.01,63.17 230.37,63.17 230.37,19.93 235.01,19.93 "/>
  <polygon class="fil6" points="10.01,63.17 5.37,63.17 5.37,19.93 10.01,19.93 "/>
  <polygon class="fil6" points="908,59 912.63,59 912.63,28.61 908,28.61 "/>
  <path class="fil0" d="M756.18 67.24c0,3.25 -2.64,5.89 -5.89,5.89 -3.25,0 -5.88,-2.64 -5.88,-5.89 0,-3.25 2.63,-5.89 5.88,-5.89 3.25,0 5.89,2.64 5.89,5.89z"/>
  <path class="fil0" d="M742.97 67.24c0,3.25 -2.64,5.89 -5.89,5.89 -3.25,0 -5.89,-2.64 -5.89,-5.89 0,-3.25 2.64,-5.89 5.89,-5.89 3.25,0 5.89,2.64 5.89,5.89z"/>
  <path class="fil0" d="M865.83 67.24c0,3.25 -2.63,5.89 -5.88,5.89 -3.26,0 -5.89,-2.64 -5.89,-5.89 0,-3.25 2.63,-5.89 5.89,-5.89 3.25,0 5.88,2.64 5.88,5.89z"/>
  <path class="fil0" d="M851.18 67.24c0,3.25 -2.63,5.89 -5.89,5.89 -3.25,0 -5.88,-2.64 -5.88,-5.89 0,-3.25 2.63,-5.89 5.88,-5.89 3.26,0 5.89,2.64 5.89,5.89z"/>
  <path class="fil7" d="M748.46 66.58c2.52,0 4.89,1.18 6.4,3.2l0 0c1.51,2.01 3.89,3.2 6.4,3.2l73.06 0c2.52,0 4.89,-1.19 6.4,-3.2l0 0c1.52,-2.02 3.89,-3.2 6.41,-3.2l10.98 0c2.52,0 4.89,1.18 6.4,3.2l0 0c1.52,2.01 3.89,3.2 6.41,3.2l33.24 0c2.12,0 3.84,-1.72 3.84,-3.84l0 -50.66c0,-2.13 -1.72,-3.85 -3.84,-3.85l-188.4 0c-2.58,0 -5.04,1.08 -6.78,2.98l-18.97 20.68c-1.56,1.7 -2.42,3.92 -2.42,6.22l0 24.28c0,2.32 1.87,4.19 4.18,4.19l32.9 0c2.52,0 4.89,-1.19 6.4,-3.2l0 0c1.52,-2.02 3.89,-3.2 6.41,-3.2l10.98 0z"/>
  <path class="fil8" d="M908 19.49l-200.74 0 -17.25 18.8c-1.56,1.7 -2.42,3.92 -2.42,6.22l0 2.83 220.41 0 0 -27.85z"/>
  <path class="fil7" d="M789.08 22.04l-14.45 0c-1.58,0 -2.86,1.28 -2.86,2.86l0 39.64c0,1.58 1.28,2.86 2.86,2.86l14.45 0c1.58,0 2.86,-1.28 2.86,-2.86l0 -39.64c0,-1.58 -1.28,-2.86 -2.86,-2.86z"/>
  <g>
   <path class="fil8" d="M774.63 21.31l14.45 0 0 1.46 -14.45 0 0 0 0 -1.46zm-2.13 3.59l-1.46 0 0 0 0 -0.18 0.02 -0.18 0.02 -0.18 0.03 -0.18 0.04 -0.18 0.05 -0.17 0.05 -0.16 0.07 -0.17 0.07 -0.16 0.08 -0.15 0.09 -0.15 0.09 -0.15 0.1 -0.14 0.11 -0.14 0.11 -0.12 0.12 -0.13 0.12 -0.12 0.13 -0.11 0.14 -0.11 0.14 -0.1 0.14 -0.09 0.16 -0.09 0.15 -0.08 0.16 -0.07 0.17 -0.07 0.16 -0.05 0.17 -0.05 0.18 -0.04 0.18 -0.03 0.17 -0.02 0.18 -0.02 0.19 0 0 1.46 -0.11 0.01 -0.11 0.01 -0.11 0.01 -0.1 0.02 -0.1 0.02 -0.1 0.03 -0.1 0.03 -0.1 0.04 -0.09 0.04 -0.09 0.05 -0.09 0.05 -0.09 0.06 -0.08 0.06 -0.08 0.06 -0.08 0.07 -0.07 0.07 -0.07 0.07 -0.07 0.08 -0.06 0.08 -0.06 0.08 -0.06 0.09 -0.05 0.09 -0.05 0.09 -0.04 0.09 -0.04 0.1 -0.03 0.1 -0.03 0.1 -0.02 0.1 -0.02 0.11 -0.01 0.1 -0.01 0.11 -0.01 0.11 0 0zm-1.46 39.64l0 -39.64 1.46 0 0 39.64 0 0 -1.46 0zm3.59 2.12l0 1.47 0 0 -0.18 0 -0.19 -0.02 -0.18 -0.02 -0.17 -0.03 -0.18 -0.04 -0.17 -0.05 -0.16 -0.06 -0.17 -0.06 -0.16 -0.07 -0.15 -0.08 -0.15 -0.09 -0.15 -0.09 -0.14 -0.1 -0.14 -0.11 -0.13 -0.11 -0.12 -0.12 -0.12 -0.13 -0.11 -0.12 -0.11 -0.14 -0.1 -0.14 -0.09 -0.14 -0.09 -0.16 -0.08 -0.15 -0.07 -0.16 -0.07 -0.17 -0.05 -0.16 -0.05 -0.17 -0.04 -0.18 -0.03 -0.18 -0.02 -0.17 -0.02 -0.18 0 -0.19 1.46 0 0.01 0.11 0.01 0.11 0.01 0.11 0.02 0.1 0.02 0.1 0.03 0.1 0.03 0.1 0.04 0.1 0.04 0.09 0.05 0.09 0.05 0.09 0.06 0.09 0.06 0.08 0.06 0.08 0.07 0.08 0.07 0.07 0.07 0.07 0.08 0.07 0.08 0.06 0.08 0.06 0.09 0.06 0.09 0.05 0.09 0.04 0.09 0.05 0.1 0.04 0.1 0.03 0.1 0.03 0.1 0.02 0.11 0.02 0.1 0.01 0.11 0.01 0.11 0 0 0zm14.45 1.47l-14.45 0 0 -1.47 14.45 0 0 0 0 1.47zm2.12 -3.59l1.47 0 0 0 0 0.19 -0.02 0.18 -0.02 0.17 -0.03 0.18 -0.04 0.18 -0.05 0.17 -0.06 0.16 -0.06 0.17 -0.07 0.16 -0.08 0.15 -0.09 0.16 -0.09 0.14 -0.1 0.14 -0.11 0.14 -0.11 0.12 -0.12 0.13 -0.13 0.12 -0.13 0.11 -0.13 0.11 -0.14 0.1 -0.15 0.09 -0.15 0.09 -0.15 0.08 -0.16 0.07 -0.17 0.06 -0.16 0.06 -0.17 0.05 -0.18 0.04 -0.17 0.03 -0.19 0.02 -0.18 0.02 -0.18 0 0 -1.47 0.11 0 0.11 -0.01 0.1 -0.01 0.11 -0.02 0.1 -0.02 0.1 -0.03 0.1 -0.03 0.1 -0.04 0.09 -0.05 0.09 -0.04 0.09 -0.05 0.08 -0.06 0.09 -0.06 0.08 -0.06 0.08 -0.07 0.07 -0.07 0.07 -0.07 0.07 -0.08 0.06 -0.08 0.06 -0.08 0.06 -0.09 0.05 -0.09 0.05 -0.09 0.04 -0.09 0.03 -0.1 0.04 -0.1 0.03 -0.1 0.02 -0.1 0.02 -0.1 0.01 -0.11 0.01 -0.11 0 -0.11 0 0zm1.47 -39.64l0 39.64 -1.47 0 0 -39.64 0 0 1.47 0zm-3.59 -2.13l0 -1.46 0 0 0.18 0 0.18 0.02 0.18 0.02 0.18 0.03 0.18 0.04 0.17 0.05 0.16 0.05 0.17 0.07 0.16 0.07 0.15 0.08 0.15 0.09 0.15 0.09 0.14 0.1 0.14 0.11 0.13 0.11 0.12 0.12 0.12 0.13 0.11 0.12 0.11 0.14 0.1 0.14 0.09 0.15 0.09 0.15 0.08 0.15 0.07 0.16 0.06 0.17 0.06 0.16 0.05 0.17 0.04 0.18 0.03 0.18 0.02 0.18 0.02 0.18 0 0.18 -1.47 0 0 -0.11 -0.01 -0.11 -0.01 -0.1 -0.02 -0.11 -0.02 -0.1 -0.03 -0.1 -0.04 -0.1 -0.03 -0.1 -0.05 -0.09 -0.04 -0.09 -0.05 -0.09 -0.06 -0.09 -0.06 -0.08 -0.06 -0.08 -0.07 -0.08 -0.07 -0.07 -0.07 -0.07 -0.08 -0.07 -0.08 -0.06 -0.08 -0.06 -0.09 -0.06 -0.09 -0.05 -0.09 -0.05 -0.09 -0.04 -0.1 -0.04 -0.1 -0.03 -0.1 -0.03 -0.1 -0.02 -0.11 -0.02 -0.1 -0.01 -0.11 -0.01 -0.11 -0.01 0 0z"/>
  </g>
  <polygon class="fil9" points="687.68,56.58 908,56.58 908,52.93 687.68,52.93 "/>
  <polygon class="fil9" points="687.68,62.98 908,62.98 908,59.32 687.68,59.32 "/>
  <path class="fil0" d="M690.59 37.65l42.82 0c1.23,0 2.23,-0.99 2.23,-2.23l0 -6.26c0,-1.23 -1,-2.23 -2.23,-2.23l-32.97 0 -9.85 10.72z"/>
  <path class="fil0" d="M786.84 37.65l-9.97 0c-1.23,0 -2.23,-0.99 -2.23,-2.23l0 -6.26c0,-1.23 1,-2.23 2.23,-2.23l9.97 0c1.23,0 2.23,1 2.23,2.23l0 6.26c0,1.24 -1,2.23 -2.23,2.23z"/>
  <polygon class="fil1" points="704.85,37.65 711,37.65 717.54,26.93 711.38,26.93 "/>
  <path class="fil0" d="M760.88 37.65l-18.25 0c-1.23,0 -2.23,-0.99 -2.23,-2.23l0 -6.26c0,-1.23 1,-2.23 2.23,-2.23l18.25 0c1.24,0 2.24,1 2.24,2.23l0 6.26c0,1.24 -1,2.23 -2.24,2.23z"/>
  <path class="fil1" d="M741.63 37.41c0.3,0.15 0.64,0.24 1,0.24l3.52 0 6.54 -10.72 -4.67 0 -6.39 10.48z"/>
  <path class="fil1" d="M780.46 26.93l-5.66 9.3c0.32,0.83 1.13,1.42 2.07,1.42l1.73 0 6.54 -10.72 -4.68 0z"/>
  <polygon class="fil1" points="713.81,37.65 723.57,37.65 730.11,26.93 720.34,26.93 "/>
  <path class="fil0" d="M818.73 37.65l-18.25 0c-1.23,0 -2.23,-0.99 -2.23,-2.23l0 -6.26c0,-1.23 1,-2.23 2.23,-2.23l18.25 0c1.23,0 2.23,1 2.23,2.23l0 6.26c0,1.24 -1,2.23 -2.23,2.23z"/>
  <path class="fil1" d="M799.48 37.41c0.3,0.15 0.64,0.24 1,0.24l3.52 0 6.54 -10.72 -4.68 0 -6.38 10.48z"/>
  <path class="fil0" d="M845.4 37.65l-18.25 0c-1.23,0 -2.23,-0.99 -2.23,-2.23l0 -6.26c0,-1.23 1,-2.23 2.23,-2.23l18.25 0c1.24,0 2.24,1 2.24,2.23l0 6.26c0,1.24 -1,2.23 -2.24,2.23z"/>
  <path class="fil1" d="M826.15 37.41c0.3,0.15 0.64,0.24 1,0.24l3.52 0 6.54 -10.72 -4.67 0 -6.39 10.48z"/>
  <path class="fil0" d="M872.08 37.65l-18.25 0c-1.24,0 -2.24,-0.99 -2.24,-2.23l0 -6.26c0,-1.23 1,-2.23 2.24,-2.23l18.25 0c1.23,0 2.23,1 2.23,2.23l0 6.26c0,1.24 -1,2.23 -2.23,2.23z"/>
  <path class="fil1" d="M852.82 37.41c0.31,0.15 0.65,0.24 1.01,0.24l3.52 0 6.53 -10.72 -4.67 0 -6.39 10.48z"/>
  <path class="fil7" d="M897.62 22.04l-14.45 0c-1.58,0 -2.86,1.28 -2.86,2.86l0 39.64c0,1.58 1.28,2.86 2.86,2.86l14.45 0c1.58,0 2.86,-1.28 2.86,-2.86l0 -39.64c0,-1.58 -1.28,-2.86 -2.86,-2.86z"/>
  <g>
   <path class="fil8" d="M883.17 21.31l14.45 0 0 1.46 -14.45 0 0 0 0 -1.46zm-2.13 3.59l-1.46 0 0 0 0 -0.18 0.01 -0.18 0.03 -0.18 0.03 -0.18 0.04 -0.18 0.05 -0.17 0.05 -0.16 0.07 -0.17 0.07 -0.16 0.08 -0.15 0.09 -0.15 0.09 -0.15 0.1 -0.14 0.11 -0.14 0.11 -0.13 0.12 -0.12 0.12 -0.12 0.13 -0.11 0.14 -0.11 0.14 -0.1 0.14 -0.09 0.16 -0.09 0.15 -0.08 0.16 -0.07 0.17 -0.07 0.16 -0.05 0.17 -0.05 0.18 -0.04 0.18 -0.03 0.17 -0.02 0.18 -0.02 0.19 0 0 1.46 -0.11 0.01 -0.11 0.01 -0.11 0.01 -0.1 0.02 -0.1 0.02 -0.1 0.03 -0.1 0.03 -0.1 0.04 -0.09 0.04 -0.09 0.05 -0.09 0.05 -0.09 0.06 -0.08 0.06 -0.08 0.06 -0.08 0.07 -0.07 0.07 -0.07 0.07 -0.07 0.08 -0.06 0.08 -0.06 0.08 -0.06 0.09 -0.05 0.09 -0.05 0.09 -0.04 0.09 -0.04 0.1 -0.03 0.1 -0.03 0.1 -0.02 0.1 -0.02 0.11 -0.02 0.1 -0.01 0.11 0 0.11 0 0zm-1.46 39.64l0 -39.64 1.46 0 0 39.64 0 0 -1.46 0zm3.59 2.12l0 1.47 0 0 -0.18 0 -0.19 -0.02 -0.18 -0.02 -0.17 -0.03 -0.18 -0.04 -0.17 -0.05 -0.16 -0.06 -0.17 -0.06 -0.16 -0.07 -0.15 -0.08 -0.15 -0.09 -0.15 -0.09 -0.14 -0.1 -0.14 -0.11 -0.13 -0.11 -0.12 -0.12 -0.12 -0.12 -0.11 -0.13 -0.11 -0.14 -0.1 -0.14 -0.09 -0.14 -0.09 -0.16 -0.08 -0.15 -0.07 -0.16 -0.07 -0.17 -0.05 -0.16 -0.05 -0.17 -0.04 -0.18 -0.03 -0.18 -0.03 -0.17 -0.01 -0.18 0 -0.19 1.46 0 0 0.11 0.01 0.11 0.02 0.11 0.02 0.1 0.02 0.1 0.03 0.1 0.03 0.1 0.04 0.1 0.04 0.09 0.05 0.09 0.05 0.09 0.06 0.09 0.06 0.08 0.06 0.08 0.07 0.08 0.07 0.07 0.07 0.07 0.08 0.07 0.08 0.06 0.08 0.06 0.09 0.06 0.09 0.05 0.09 0.04 0.09 0.05 0.1 0.04 0.1 0.03 0.1 0.03 0.1 0.02 0.11 0.02 0.1 0.01 0.11 0.01 0.11 0 0 0zm14.45 1.47l-14.45 0 0 -1.47 14.45 0 0 0 0 1.47zm2.12 -3.59l1.47 0 0 0 0 0.19 -0.02 0.18 -0.02 0.17 -0.03 0.18 -0.04 0.18 -0.05 0.17 -0.06 0.16 -0.06 0.17 -0.07 0.16 -0.08 0.15 -0.09 0.16 -0.09 0.14 -0.1 0.14 -0.11 0.14 -0.11 0.13 -0.12 0.12 -0.13 0.12 -0.13 0.11 -0.13 0.11 -0.14 0.1 -0.15 0.09 -0.15 0.09 -0.16 0.08 -0.15 0.07 -0.17 0.06 -0.17 0.06 -0.17 0.05 -0.17 0.04 -0.18 0.03 -0.18 0.02 -0.18 0.02 -0.18 0 0 -1.47 0.11 0 0.1 -0.01 0.11 -0.01 0.11 -0.02 0.1 -0.02 0.1 -0.03 0.1 -0.03 0.09 -0.04 0.1 -0.05 0.09 -0.04 0.09 -0.05 0.09 -0.06 0.08 -0.06 0.08 -0.06 0.08 -0.07 0.07 -0.07 0.07 -0.07 0.07 -0.08 0.06 -0.08 0.06 -0.08 0.06 -0.09 0.05 -0.09 0.05 -0.09 0.04 -0.09 0.03 -0.1 0.04 -0.1 0.03 -0.1 0.02 -0.1 0.02 -0.1 0.01 -0.11 0.01 -0.11 0 -0.11 0 0zm1.47 -39.64l0 39.64 -1.47 0 0 -39.64 0 0 1.47 0zm-3.59 -2.13l0 -1.46 0 0 0.18 0 0.18 0.02 0.18 0.02 0.18 0.03 0.17 0.04 0.17 0.05 0.17 0.05 0.17 0.07 0.15 0.07 0.16 0.08 0.15 0.09 0.14 0.09 0.15 0.1 0.13 0.11 0.13 0.11 0.13 0.12 0.12 0.12 0.11 0.13 0.11 0.14 0.1 0.14 0.09 0.15 0.09 0.15 0.08 0.15 0.07 0.16 0.06 0.17 0.06 0.16 0.05 0.17 0.04 0.18 0.03 0.18 0.02 0.18 0.02 0.18 0 0.18 -1.47 0 0 -0.11 -0.01 -0.11 -0.01 -0.1 -0.02 -0.11 -0.02 -0.1 -0.03 -0.1 -0.04 -0.1 -0.03 -0.1 -0.05 -0.09 -0.04 -0.09 -0.05 -0.09 -0.06 -0.09 -0.06 -0.08 -0.06 -0.08 -0.07 -0.08 -0.07 -0.07 -0.07 -0.07 -0.08 -0.07 -0.08 -0.06 -0.08 -0.06 -0.09 -0.06 -0.09 -0.05 -0.09 -0.05 -0.1 -0.04 -0.09 -0.04 -0.1 -0.03 -0.1 -0.03 -0.1 -0.02 -0.11 -0.02 -0.11 -0.01 -0.11 -0.01 -0.1 -0.01 0 0z"/>
  </g>
  <path class="fil0" d="M895.37 37.65l-9.96 0c-1.23,0 -2.23,-0.99 -2.23,-2.23l0 -6.26c0,-1.23 1,-2.23 2.23,-2.23l9.96 0c1.24,0 2.24,1 2.24,2.23l0 6.26c0,1.24 -1,2.23 -2.24,2.23z"/>
  <path class="fil1" d="M889 26.93l-5.67 9.3c0.33,0.83 1.13,1.42 2.08,1.42l1.73 0 6.54 -10.72 -4.68 0z"/>
  <path class="fil0" d="M981.23 67.24c0,3.25 -2.64,5.89 -5.89,5.89 -3.25,0 -5.89,-2.64 -5.89,-5.89 0,-3.25 2.64,-5.89 5.89,-5.89 3.25,0 5.89,2.64 5.89,5.89z"/>
  <path class="fil0" d="M968.02 67.24c0,3.25 -2.64,5.89 -5.89,5.89 -3.25,0 -5.89,-2.64 -5.89,-5.89 0,-3.25 2.64,-5.89 5.89,-5.89 3.25,0 5.89,2.64 5.89,5.89z"/>
  <path class="fil0" d="M1090.88 67.24c0,3.25 -2.64,5.89 -5.89,5.89 -3.25,0 -5.89,-2.64 -5.89,-5.89 0,-3.25 2.64,-5.89 5.89,-5.89 3.25,0 5.89,2.64 5.89,5.89z"/>
  <path class="fil0" d="M1076.23 67.24c0,3.25 -2.64,5.89 -5.89,5.89 -3.25,0 -5.89,-2.64 -5.89,-5.89 0,-3.25 2.64,-5.89 5.89,-5.89 3.25,0 5.89,2.64 5.89,5.89z"/>
  <path class="fil7" d="M973.51 66.58c2.51,0 4.89,1.18 6.4,3.2l0 0c1.51,2.01 3.88,3.2 6.4,3.2l73.06 0c2.52,0 4.89,-1.19 6.4,-3.2l0 0c1.51,-2.02 3.89,-3.2 6.41,-3.2l10.98 0c2.52,0 4.89,1.18 6.4,3.2l0 0c1.51,2.01 3.89,3.2 6.4,3.2l33.25 0c2.12,0 3.84,-1.72 3.84,-3.84l0 -50.66c0,-2.13 -1.72,-3.85 -3.84,-3.85l-188.4 0c-2.58,0 -28.08,0 -28.08,0 0,0 -0.1,27.58 -0.1,29.88l0 24.28c0,2.32 1.88,4.19 4.19,4.19l32.9 0c2.52,0 4.89,-1.19 6.4,-3.2l0 0c1.51,-2.02 3.89,-3.2 6.4,-3.2l10.99 0z"/>
  <polygon class="fil6" points="1133.05,59 1137.68,59 1137.68,28.61 1133.05,28.61 "/>
  <polygon class="fil8" points="912.63,44.51 912.63,47.34 1133.05,47.34 1133.05,19.49 912.73,19.49 "/>
  <path class="fil0" d="M965.28 37.65l-18.25 0c-1.23,0 -2.23,-0.99 -2.23,-2.23l0 -6.26c0,-1.23 1,-2.23 2.23,-2.23l18.25 0c1.23,0 2.23,1 2.23,2.23l0 6.26c0,1.24 -1,2.23 -2.23,2.23z"/>
  <path class="fil1" d="M946.03 37.41c0.3,0.15 0.64,0.24 1,0.24l3.52 0 6.54 -10.72 -4.67 0 -6.39 10.48z"/>
  <path class="fil0" d="M991.95 37.65l-18.24 0c-1.24,0 -2.24,-0.99 -2.24,-2.23l0 -6.26c0,-1.23 1,-2.23 2.24,-2.23l18.24 0c1.24,0 2.24,1 2.24,2.23l0 6.26c0,1.24 -1,2.23 -2.24,2.23z"/>
  <path class="fil1" d="M972.7 37.41c0.31,0.15 0.64,0.24 1.01,0.24l3.51 0 6.54 -10.72 -4.67 0 -6.39 10.48z"/>
  <path class="fil0" d="M1018.63 37.65l-18.25 0c-1.23,0 -2.23,-0.99 -2.23,-2.23l0 -6.26c0,-1.23 1,-2.23 2.23,-2.23l18.25 0c1.23,0 2.23,1 2.23,2.23l0 6.26c0,1.24 -1,2.23 -2.23,2.23z"/>
  <path class="fil1" d="M999.38 37.41c0.3,0.15 0.64,0.24 1,0.24l3.52 0 6.54 -10.72 -4.68 0 -6.38 10.48z"/>
  <path class="fil0" d="M1045.3 37.65l-18.25 0c-1.23,0 -2.23,-0.99 -2.23,-2.23l0 -6.26c0,-1.23 1,-2.23 2.23,-2.23l18.25 0c1.24,0 2.24,1 2.24,2.23l0 6.26c0,1.24 -1,2.23 -2.24,2.23z"/>
  <path class="fil1" d="M1026.05 37.41c0.3,0.15 0.64,0.24 1,0.24l3.52 0 6.54 -10.72 -4.67 0 -6.39 10.48z"/>
  <path class="fil0" d="M1071.98 37.65l-18.25 0c-1.24,0 -2.24,-0.99 -2.24,-2.23l0 -6.26c0,-1.23 1,-2.23 2.24,-2.23l18.25 0c1.23,0 2.23,1 2.23,2.23l0 6.26c0,1.24 -1,2.23 -2.23,2.23z"/>
  <path class="fil1" d="M1052.73 37.41c0.3,0.15 0.63,0.24 1,0.24l3.52 0 6.53 -10.72 -4.67 0 -6.38 10.48z"/>
  <path class="fil0" d="M1098.65 37.65l-18.25 0c-1.23,0 -2.23,-0.99 -2.23,-2.23l0 -6.26c0,-1.23 1,-2.23 2.23,-2.23l18.25 0c1.23,0 2.23,1 2.23,2.23l0 6.26c0,1.24 -1,2.23 -2.23,2.23z"/>
  <path class="fil1" d="M1079.4 37.41c0.3,0.15 0.64,0.24 1,0.24l3.52 0 6.54 -10.72 -4.68 0 -6.38 10.48z"/>
  <path class="fil7" d="M938.61 22.04l-14.44 0c-1.58,0 -2.86,1.28 -2.86,2.86l0 39.64c0,1.58 1.28,2.86 2.86,2.86l14.44 0c1.58,0 2.87,-1.28 2.87,-2.86l0 -39.64c0,-1.58 -1.29,-2.86 -2.87,-2.86z"/>
  <g>
   <path class="fil8" d="M924.17 21.31l14.44 0 0 1.46 -14.44 0 0 0 0 -1.46zm-2.13 3.59l-1.46 0 0 0 0 -0.18 0.01 -0.18 0.03 -0.18 0.03 -0.18 0.04 -0.18 0.05 -0.17 0.05 -0.16 0.07 -0.17 0.07 -0.16 0.08 -0.15 0.09 -0.15 0.09 -0.15 0.1 -0.14 0.11 -0.14 0.11 -0.12 0.12 -0.13 0.12 -0.12 0.13 -0.11 0.14 -0.11 0.14 -0.1 0.14 -0.09 0.15 -0.09 0.16 -0.08 0.16 -0.07 0.16 -0.07 0.17 -0.05 0.17 -0.05 0.18 -0.04 0.17 -0.03 0.18 -0.02 0.18 -0.02 0.19 0 0 1.46 -0.11 0.01 -0.11 0.01 -0.11 0.01 -0.1 0.02 -0.1 0.02 -0.1 0.03 -0.1 0.03 -0.1 0.04 -0.09 0.04 -0.09 0.05 -0.09 0.05 -0.09 0.06 -0.08 0.06 -0.08 0.06 -0.08 0.07 -0.08 0.07 -0.06 0.07 -0.07 0.08 -0.07 0.08 -0.05 0.08 -0.06 0.09 -0.05 0.09 -0.05 0.09 -0.04 0.09 -0.04 0.1 -0.03 0.1 -0.03 0.1 -0.02 0.1 -0.02 0.11 -0.02 0.1 -0.01 0.11 0 0.11 0 0zm-1.46 39.64l0 -39.64 1.46 0 0 39.64 0 0 -1.46 0zm3.59 2.12l0 1.47 0 0 -0.18 0 -0.19 -0.02 -0.18 -0.02 -0.17 -0.03 -0.18 -0.04 -0.17 -0.05 -0.17 -0.06 -0.16 -0.06 -0.16 -0.07 -0.15 -0.08 -0.15 -0.09 -0.15 -0.09 -0.14 -0.1 -0.14 -0.11 -0.13 -0.11 -0.12 -0.12 -0.12 -0.13 -0.11 -0.12 -0.11 -0.14 -0.1 -0.14 -0.09 -0.15 -0.09 -0.15 -0.08 -0.15 -0.07 -0.16 -0.07 -0.17 -0.05 -0.16 -0.05 -0.17 -0.04 -0.18 -0.03 -0.18 -0.03 -0.17 -0.01 -0.18 0 -0.19 1.46 0 0 0.11 0.01 0.11 0.02 0.11 0.02 0.1 0.02 0.1 0.03 0.1 0.03 0.1 0.04 0.1 0.04 0.09 0.05 0.09 0.05 0.09 0.05 0.09 0.06 0.08 0.07 0.08 0.07 0.08 0.06 0.07 0.08 0.07 0.08 0.07 0.08 0.06 0.08 0.06 0.09 0.06 0.08 0.05 0.1 0.04 0.09 0.05 0.1 0.04 0.1 0.03 0.1 0.03 0.1 0.02 0.1 0.02 0.11 0.01 0.11 0.01 0.11 0 0 0zm14.44 1.47l-14.44 0 0 -1.47 14.44 0 0 0 0 1.47zm2.13 -3.59l1.47 0 0 0 -0.01 0.19 -0.01 0.18 -0.02 0.17 -0.03 0.18 -0.04 0.18 -0.05 0.17 -0.06 0.16 -0.06 0.17 -0.08 0.16 -0.07 0.15 -0.09 0.16 -0.09 0.14 -0.1 0.14 -0.11 0.14 -0.12 0.13 -0.11 0.12 -0.13 0.12 -0.13 0.11 -0.13 0.11 -0.14 0.1 -0.15 0.09 -0.15 0.09 -0.16 0.08 -0.16 0.07 -0.16 0.06 -0.17 0.06 -0.17 0.05 -0.17 0.04 -0.18 0.03 -0.18 0.02 -0.18 0.02 -0.19 0 0 -1.47 0.12 0 0.1 -0.01 0.11 -0.01 0.1 -0.02 0.1 -0.02 0.11 -0.03 0.1 -0.03 0.09 -0.04 0.1 -0.05 0.09 -0.04 0.09 -0.05 0.08 -0.06 0.09 -0.06 0.08 -0.06 0.08 -0.07 0.07 -0.07 0.07 -0.07 0.07 -0.08 0.06 -0.08 0.06 -0.08 0.06 -0.09 0.05 -0.09 0.04 -0.09 0.05 -0.09 0.03 -0.1 0.04 -0.1 0.03 -0.1 0.02 -0.1 0.02 -0.1 0.01 -0.11 0.01 -0.11 0 -0.11 0 0zm1.47 -39.64l0 39.64 -1.47 0 0 -39.64 0 0 1.47 0zm-3.6 -2.13l0 -1.46 0 0 0.19 0 0.18 0.02 0.18 0.02 0.18 0.03 0.17 0.04 0.17 0.05 0.17 0.05 0.16 0.07 0.16 0.07 0.16 0.08 0.15 0.09 0.14 0.09 0.15 0.1 0.13 0.11 0.13 0.11 0.13 0.12 0.11 0.12 0.12 0.13 0.11 0.14 0.1 0.14 0.09 0.15 0.09 0.15 0.08 0.15 0.07 0.16 0.06 0.17 0.06 0.16 0.05 0.17 0.04 0.18 0.03 0.18 0.02 0.18 0.01 0.18 0.01 0.18 -1.47 0 0 -0.11 -0.01 -0.11 -0.01 -0.1 -0.02 -0.11 -0.02 -0.1 -0.03 -0.1 -0.04 -0.1 -0.03 -0.1 -0.05 -0.09 -0.04 -0.09 -0.05 -0.09 -0.06 -0.09 -0.06 -0.08 -0.06 -0.08 -0.07 -0.08 -0.07 -0.07 -0.08 -0.07 -0.07 -0.07 -0.08 -0.06 -0.08 -0.06 -0.09 -0.06 -0.09 -0.05 -0.09 -0.05 -0.1 -0.04 -0.09 -0.04 -0.1 -0.03 -0.11 -0.03 -0.1 -0.02 -0.1 -0.02 -0.11 -0.01 -0.11 -0.01 -0.11 -0.01 0 0z"/>
  </g>
  <path class="fil0" d="M936.37 37.65l-9.96 0c-1.23,0 -2.23,-0.99 -2.23,-2.23l0 -6.26c0,-1.23 1,-2.23 2.23,-2.23l9.96 0c1.24,0 2.24,1 2.24,2.23l0 6.26c0,1.24 -1,2.23 -2.24,2.23z"/>
  <path class="fil1" d="M930 26.93l-5.67 9.3c0.33,0.83 1.13,1.42 2.08,1.42l1.73 0 6.53 -10.72 -4.67 0z"/>
  <path class="fil7" d="M1121.51 22.04l-14.44 0c-1.58,0 -2.86,1.28 -2.86,2.86l0 39.64c0,1.58 1.28,2.86 2.86,2.86l14.44 0c1.58,0 2.86,-1.28 2.86,-2.86l0 -39.64c0,-1.58 -1.28,-2.86 -2.86,-2.86z"/>
  <g>
   <path class="fil8" d="M1107.07 21.31l14.44 0 0 1.46 -14.44 0 0 0 0 -1.46zm-2.13 3.59l-1.47 0 0 0 0.01 -0.18 0.01 -0.18 0.02 -0.18 0.03 -0.18 0.05 -0.18 0.04 -0.17 0.06 -0.16 0.06 -0.17 0.08 -0.16 0.08 -0.15 0.08 -0.15 0.1 -0.15 0.1 -0.14 0.1 -0.14 0.12 -0.13 0.12 -0.12 0.12 -0.12 0.13 -0.11 0.14 -0.11 0.14 -0.1 0.14 -0.09 0.15 -0.09 0.16 -0.08 0.16 -0.07 0.16 -0.07 0.17 -0.05 0.17 -0.05 0.17 -0.04 0.18 -0.03 0.18 -0.02 0.18 -0.02 0.19 0 0 1.46 -0.11 0.01 -0.11 0.01 -0.11 0.01 -0.1 0.02 -0.1 0.02 -0.11 0.03 -0.1 0.03 -0.09 0.04 -0.1 0.04 -0.09 0.05 -0.08 0.05 -0.09 0.06 -0.09 0.06 -0.07 0.06 -0.08 0.07 -0.08 0.07 -0.07 0.07 -0.06 0.08 -0.07 0.08 -0.06 0.08 -0.05 0.09 -0.05 0.09 -0.05 0.09 -0.04 0.09 -0.04 0.1 -0.03 0.1 -0.03 0.1 -0.03 0.1 -0.02 0.11 -0.01 0.1 -0.01 0.11 0 0.11 0 0zm-1.47 39.64l0 -39.64 1.47 0 0 39.64 0 0 -1.47 0zm3.6 2.12l0 1.47 0 0 -0.19 0 -0.18 -0.02 -0.18 -0.02 -0.18 -0.03 -0.17 -0.04 -0.17 -0.05 -0.17 -0.06 -0.16 -0.06 -0.16 -0.07 -0.15 -0.08 -0.16 -0.09 -0.14 -0.09 -0.15 -0.1 -0.13 -0.11 -0.13 -0.11 -0.12 -0.12 -0.12 -0.12 -0.12 -0.13 -0.1 -0.14 -0.1 -0.14 -0.1 -0.14 -0.08 -0.16 -0.08 -0.15 -0.08 -0.16 -0.06 -0.17 -0.06 -0.16 -0.04 -0.17 -0.05 -0.18 -0.03 -0.18 -0.02 -0.17 -0.01 -0.18 -0.01 -0.19 1.47 0 0 0.11 0.01 0.11 0.01 0.11 0.02 0.1 0.03 0.1 0.03 0.1 0.03 0.1 0.04 0.1 0.04 0.09 0.05 0.09 0.05 0.09 0.05 0.09 0.06 0.08 0.07 0.08 0.06 0.08 0.07 0.07 0.08 0.07 0.08 0.07 0.08 0.06 0.08 0.06 0.08 0.06 0.09 0.05 0.09 0.04 0.1 0.05 0.09 0.04 0.1 0.03 0.11 0.03 0.1 0.02 0.1 0.02 0.11 0.01 0.1 0.01 0.12 0 0 0zm14.44 1.47l-14.44 0 0 -1.47 14.44 0 0 0 0 1.47zm2.13 -3.59l1.47 0 0 0 -0.01 0.19 -0.01 0.18 -0.02 0.17 -0.03 0.18 -0.05 0.18 -0.04 0.17 -0.06 0.16 -0.06 0.17 -0.08 0.16 -0.08 0.15 -0.08 0.16 -0.1 0.14 -0.1 0.14 -0.11 0.14 -0.11 0.13 -0.12 0.12 -0.12 0.12 -0.13 0.11 -0.13 0.11 -0.15 0.1 -0.14 0.09 -0.15 0.09 -0.16 0.08 -0.16 0.07 -0.16 0.06 -0.17 0.06 -0.17 0.05 -0.17 0.04 -0.18 0.03 -0.18 0.02 -0.18 0.02 -0.19 0 0 -1.47 0.12 0 0.1 -0.01 0.11 -0.01 0.1 -0.02 0.1 -0.02 0.1 -0.03 0.11 -0.03 0.09 -0.04 0.1 -0.05 0.09 -0.04 0.09 -0.05 0.08 -0.06 0.08 -0.06 0.09 -0.06 0.07 -0.07 0.08 -0.07 0.07 -0.07 0.07 -0.08 0.06 -0.08 0.06 -0.08 0.05 -0.09 0.05 -0.09 0.05 -0.09 0.04 -0.09 0.04 -0.1 0.04 -0.1 0.03 -0.1 0.02 -0.1 0.02 -0.1 0.01 -0.11 0.01 -0.11 0 -0.11 0 0zm1.47 -39.64l0 39.64 -1.47 0 0 -39.64 0 0 1.47 0zm-3.6 -2.13l0 -1.46 0 0 0.19 0 0.18 0.02 0.18 0.02 0.18 0.03 0.17 0.04 0.17 0.05 0.17 0.05 0.16 0.07 0.16 0.07 0.16 0.08 0.15 0.09 0.14 0.09 0.14 0.1 0.14 0.11 0.13 0.11 0.12 0.12 0.12 0.12 0.11 0.13 0.11 0.14 0.11 0.14 0.09 0.15 0.08 0.15 0.08 0.15 0.08 0.16 0.06 0.17 0.06 0.16 0.04 0.17 0.05 0.18 0.03 0.18 0.02 0.18 0.01 0.18 0.01 0.18 -1.47 0 0 -0.11 -0.01 -0.11 -0.01 -0.1 -0.02 -0.11 -0.02 -0.1 -0.03 -0.1 -0.04 -0.1 -0.04 -0.1 -0.04 -0.09 -0.05 -0.09 -0.05 -0.09 -0.05 -0.09 -0.06 -0.08 -0.06 -0.08 -0.07 -0.08 -0.07 -0.07 -0.08 -0.07 -0.08 -0.07 -0.07 -0.06 -0.09 -0.06 -0.09 -0.06 -0.08 -0.05 -0.09 -0.05 -0.1 -0.04 -0.09 -0.04 -0.11 -0.03 -0.1 -0.03 -0.1 -0.02 -0.1 -0.02 -0.11 -0.01 -0.11 -0.01 -0.11 -0.01 0 0z"/>
  </g>
  <path class="fil0" d="M1119.27 37.65l-9.96 0c-1.24,0 -2.23,-0.99 -2.23,-2.23l0 -6.26c0,-1.23 0.99,-2.23 2.23,-2.23l9.96 0c1.24,0 2.24,1 2.24,2.23l0 6.26c0,1.24 -1,2.23 -2.24,2.23z"/>
  <path class="fil1" d="M1112.9 26.93l-5.67 9.3c0.33,0.83 1.13,1.42 2.08,1.42l1.73 0 6.53 -10.72 -4.67 0z"/>
  <polygon class="fil9" points="912.73,56.58 1133.05,56.58 1133.05,52.93 912.73,52.93 "/>
  <polygon class="fil9" points="912.73,62.98 1133.05,62.98 1133.05,59.32 912.73,59.32 "/>
  <path class="fil0" d="M1206.13 67.24c0,3.25 -2.63,5.89 -5.88,5.89 -3.26,0 -5.89,-2.64 -5.89,-5.89 0,-3.25 2.63,-5.89 5.89,-5.89 3.25,0 5.88,2.64 5.88,5.89z"/>
  <path class="fil0" d="M1192.92 67.24c0,3.25 -2.63,5.89 -5.89,5.89 -3.25,0 -5.88,-2.64 -5.88,-5.89 0,-3.25 2.63,-5.89 5.88,-5.89 3.26,0 5.89,2.64 5.89,5.89z"/>
  <path class="fil0" d="M1315.79 67.24c0,3.25 -2.64,5.89 -5.89,5.89 -3.25,0 -5.89,-2.64 -5.89,-5.89 0,-3.25 2.64,-5.89 5.89,-5.89 3.25,0 5.89,2.64 5.89,5.89z"/>
  <path class="fil0" d="M1301.14 67.24c0,3.25 -2.64,5.89 -5.89,5.89 -3.26,0 -5.89,-2.64 -5.89,-5.89 0,-3.25 2.63,-5.89 5.89,-5.89 3.25,0 5.89,2.64 5.89,5.89z"/>
  <path class="fil7" d="M1198.41 66.58c2.52,0 4.89,1.18 6.4,3.2l0 0c1.52,2.01 3.89,3.2 6.41,3.2l73.05 0c2.52,0 4.9,-1.19 6.41,-3.2l0 0c1.51,-2.02 3.88,-3.2 6.4,-3.2l10.98 0c2.52,0 4.89,1.18 6.41,3.2l0 0c1.51,2.01 3.88,3.2 6.4,3.2l33.24 0c2.12,0 3.84,-1.72 3.84,-3.84l0 -50.66c0,-2.13 -1.72,-3.85 -3.84,-3.85l-188.4 0c-2.58,0 -28.07,0 -28.07,0 0,0 -0.1,27.58 -0.1,29.88l0 24.28c0,2.32 1.87,4.19 4.18,4.19l32.9 0c2.52,0 4.89,-1.19 6.41,-3.2l0 0c1.51,-2.02 3.88,-3.2 6.4,-3.2l10.98 0z"/>
  <polygon class="fil6" points="1357.95,59 1362.59,59 1362.59,28.61 1357.95,28.61 "/>
  <polygon class="fil8" points="1137.54,44.51 1137.54,47.34 1357.95,47.34 1357.95,19.49 1137.64,19.49 "/>
  <path class="fil0" d="M1190.19 37.65l-18.25 0c-1.24,0 -2.24,-0.99 -2.24,-2.23l0 -6.26c0,-1.23 1,-2.23 2.24,-2.23l18.25 0c1.23,0 2.23,1 2.23,2.23l0 6.26c0,1.24 -1,2.23 -2.23,2.23z"/>
  <path class="fil1" d="M1170.93 37.41c0.31,0.15 0.64,0.24 1.01,0.24l3.52 0 6.53 -10.72 -4.67 0 -6.39 10.48z"/>
  <path class="fil0" d="M1216.86 37.65l-18.25 0c-1.23,0 -2.23,-0.99 -2.23,-2.23l0 -6.26c0,-1.23 1,-2.23 2.23,-2.23l18.25 0c1.23,0 2.23,1 2.23,2.23l0 6.26c0,1.24 -1,2.23 -2.23,2.23z"/>
  <path class="fil1" d="M1197.61 37.41c0.3,0.15 0.64,0.24 1,0.24l3.52 0 6.54 -10.72 -4.68 0 -6.38 10.48z"/>
  <path class="fil0" d="M1243.53 37.65l-18.24 0c-1.24,0 -2.24,-0.99 -2.24,-2.23l0 -6.26c0,-1.23 1,-2.23 2.24,-2.23l18.24 0c1.24,0 2.24,1 2.24,2.23l0 6.26c0,1.24 -1,2.23 -2.24,2.23z"/>
  <path class="fil1" d="M1224.28 37.41c0.31,0.15 0.64,0.24 1.01,0.24l3.51 0 6.54 -10.72 -4.67 0 -6.39 10.48z"/>
  <path class="fil0" d="M1270.21 37.65l-18.25 0c-1.23,0 -2.23,-0.99 -2.23,-2.23l0 -6.26c0,-1.23 1,-2.23 2.23,-2.23l18.25 0c1.23,0 2.23,1 2.23,2.23l0 6.26c0,1.24 -1,2.23 -2.23,2.23z"/>
  <path class="fil1" d="M1250.96 37.41c0.3,0.15 0.64,0.24 1,0.24l3.52 0 6.53 -10.72 -4.67 0 -6.38 10.48z"/>
  <path class="fil0" d="M1296.88 37.65l-18.25 0c-1.23,0 -2.23,-0.99 -2.23,-2.23l0 -6.26c0,-1.23 1,-2.23 2.23,-2.23l18.25 0c1.23,0 2.23,1 2.23,2.23l0 6.26c0,1.24 -1,2.23 -2.23,2.23z"/>
  <path class="fil1" d="M1277.63 37.41c0.3,0.15 0.64,0.24 1,0.24l3.52 0 6.54 -10.72 -4.68 0 -6.38 10.48z"/>
  <path class="fil0" d="M1323.55 37.65l-18.24 0c-1.24,0 -2.24,-0.99 -2.24,-2.23l0 -6.26c0,-1.23 1,-2.23 2.24,-2.23l18.24 0c1.24,0 2.24,1 2.24,2.23l0 6.26c0,1.24 -1,2.23 -2.24,2.23z"/>
  <path class="fil1" d="M1304.3 37.41c0.31,0.15 0.64,0.24 1.01,0.24l3.51 0 6.54 -10.72 -4.67 0 -6.39 10.48z"/>
  <path class="fil7" d="M1163.52 22.04l-14.45 0c-1.58,0 -2.86,1.28 -2.86,2.86l0 39.64c0,1.58 1.28,2.86 2.86,2.86l14.45 0c1.58,0 2.86,-1.28 2.86,-2.86l0 -39.64c0,-1.58 -1.28,-2.86 -2.86,-2.86z"/>
  <g>
   <path class="fil8" d="M1149.07 21.31l14.45 0 0 1.46 -14.45 0 0 0 0 -1.46zm-2.12 3.59l-1.47 0 0 0 0 -0.18 0.02 -0.18 0.02 -0.18 0.03 -0.18 0.04 -0.18 0.05 -0.17 0.06 -0.16 0.06 -0.17 0.07 -0.16 0.08 -0.15 0.09 -0.15 0.09 -0.15 0.1 -0.14 0.11 -0.14 0.11 -0.13 0.12 -0.12 0.12 -0.12 0.13 -0.11 0.14 -0.11 0.14 -0.1 0.15 -0.09 0.15 -0.09 0.16 -0.08 0.15 -0.07 0.17 -0.07 0.16 -0.05 0.18 -0.05 0.17 -0.04 0.18 -0.03 0.18 -0.02 0.18 -0.02 0.18 0 0 1.46 -0.1 0.01 -0.11 0.01 -0.11 0.01 -0.11 0.02 -0.1 0.02 -0.1 0.03 -0.1 0.03 -0.09 0.04 -0.1 0.04 -0.09 0.05 -0.09 0.05 -0.09 0.06 -0.08 0.06 -0.08 0.06 -0.08 0.07 -0.07 0.07 -0.07 0.07 -0.07 0.08 -0.06 0.08 -0.06 0.08 -0.06 0.09 -0.05 0.09 -0.04 0.09 -0.05 0.09 -0.03 0.1 -0.04 0.1 -0.03 0.1 -0.02 0.1 -0.02 0.11 -0.01 0.1 -0.01 0.11 0 0.11 0 0zm-1.47 39.64l0 -39.64 1.47 0 0 39.64 0 0 -1.47 0zm3.59 2.12l0 1.47 0 0 -0.18 0 -0.18 -0.02 -0.18 -0.02 -0.18 -0.03 -0.17 -0.04 -0.18 -0.05 -0.16 -0.06 -0.17 -0.06 -0.15 -0.07 -0.16 -0.08 -0.15 -0.09 -0.15 -0.09 -0.14 -0.1 -0.13 -0.11 -0.13 -0.11 -0.13 -0.12 -0.12 -0.12 -0.11 -0.13 -0.11 -0.14 -0.1 -0.14 -0.09 -0.14 -0.09 -0.16 -0.08 -0.15 -0.07 -0.16 -0.06 -0.17 -0.06 -0.16 -0.05 -0.17 -0.04 -0.18 -0.03 -0.18 -0.02 -0.17 -0.02 -0.18 0 -0.19 1.47 0 0 0.11 0.01 0.11 0.01 0.11 0.02 0.1 0.02 0.1 0.03 0.1 0.04 0.1 0.03 0.1 0.04 0.09 0.05 0.09 0.05 0.09 0.06 0.09 0.06 0.08 0.06 0.08 0.07 0.08 0.07 0.07 0.07 0.07 0.08 0.07 0.08 0.06 0.08 0.06 0.09 0.06 0.09 0.05 0.09 0.04 0.1 0.05 0.09 0.04 0.1 0.03 0.1 0.03 0.1 0.02 0.11 0.02 0.11 0.01 0.1 0.01 0.11 0 0 0zm14.45 1.47l-14.45 0 0 -1.47 14.45 0 0 0 0 1.47zm2.13 -3.59l1.46 0 0 0 0 0.19 -0.02 0.18 -0.02 0.17 -0.03 0.18 -0.04 0.18 -0.05 0.17 -0.05 0.16 -0.07 0.17 -0.07 0.16 -0.08 0.15 -0.09 0.15 -0.09 0.15 -0.1 0.14 -0.11 0.14 -0.11 0.12 -0.12 0.13 -0.12 0.12 -0.13 0.11 -0.14 0.11 -0.14 0.1 -0.15 0.09 -0.15 0.09 -0.15 0.08 -0.16 0.07 -0.17 0.06 -0.16 0.06 -0.17 0.05 -0.18 0.04 -0.17 0.03 -0.18 0.02 -0.19 0.02 -0.18 0 0 -1.47 0.11 0 0.11 -0.01 0.1 -0.01 0.11 -0.02 0.1 -0.02 0.1 -0.03 0.1 -0.03 0.1 -0.04 0.09 -0.05 0.09 -0.04 0.09 -0.05 0.09 -0.06 0.08 -0.06 0.08 -0.06 0.08 -0.07 0.07 -0.07 0.07 -0.07 0.07 -0.08 0.07 -0.08 0.05 -0.08 0.06 -0.09 0.05 -0.09 0.05 -0.09 0.04 -0.09 0.04 -0.1 0.03 -0.1 0.03 -0.1 0.02 -0.1 0.02 -0.1 0.01 -0.11 0.01 -0.11 0.01 -0.11 0 0zm1.46 -39.64l0 39.64 -1.46 0 0 -39.64 0 0 1.46 0zm-3.59 -2.13l0 -1.46 0 0 0.19 0 0.18 0.02 0.17 0.02 0.18 0.03 0.18 0.04 0.17 0.05 0.16 0.05 0.17 0.07 0.16 0.07 0.15 0.08 0.15 0.09 0.15 0.09 0.14 0.1 0.14 0.11 0.13 0.11 0.12 0.12 0.12 0.13 0.11 0.12 0.11 0.14 0.1 0.14 0.09 0.15 0.09 0.15 0.08 0.15 0.07 0.16 0.07 0.17 0.05 0.16 0.05 0.17 0.04 0.18 0.03 0.18 0.02 0.18 0.02 0.18 0 0.18 -1.46 0 -0.01 -0.11 -0.01 -0.11 -0.01 -0.1 -0.02 -0.11 -0.02 -0.1 -0.03 -0.1 -0.03 -0.1 -0.04 -0.1 -0.04 -0.09 -0.05 -0.09 -0.05 -0.09 -0.06 -0.09 -0.05 -0.08 -0.07 -0.08 -0.07 -0.08 -0.07 -0.07 -0.07 -0.07 -0.08 -0.07 -0.08 -0.06 -0.08 -0.06 -0.09 -0.06 -0.09 -0.05 -0.09 -0.05 -0.09 -0.04 -0.1 -0.04 -0.1 -0.03 -0.1 -0.03 -0.1 -0.02 -0.1 -0.02 -0.11 -0.01 -0.11 -0.01 -0.11 -0.01 0 0z"/>
  </g>
  <path class="fil0" d="M1161.28 37.65l-9.96 0c-1.24,0 -2.24,-0.99 -2.24,-2.23l0 -6.26c0,-1.23 1,-2.23 2.24,-2.23l9.96 0c1.23,0 2.23,1 2.23,2.23l0 6.26c0,1.24 -1,2.23 -2.23,2.23z"/>
  <path class="fil1" d="M1154.91 26.93l-5.67 9.3c0.32,0.83 1.13,1.42 2.08,1.42l1.72 0 6.54 -10.72 -4.67 0z"/>
  <path class="fil7" d="M1346.42 22.04l-14.45 0c-1.58,0 -2.86,1.28 -2.86,2.86l0 39.64c0,1.58 1.28,2.86 2.86,2.86l14.45 0c1.58,0 2.86,-1.28 2.86,-2.86l0 -39.64c0,-1.58 -1.28,-2.86 -2.86,-2.86z"/>
  <g>
   <path class="fil8" d="M1331.97 21.31l14.45 0 0 1.46 -14.45 0 0 0 0 -1.46zm-2.13 3.59l-1.46 0 0 0 0 -0.18 0.02 -0.18 0.02 -0.18 0.03 -0.18 0.04 -0.18 0.05 -0.17 0.05 -0.16 0.07 -0.17 0.07 -0.16 0.08 -0.15 0.09 -0.15 0.09 -0.15 0.1 -0.14 0.11 -0.14 0.11 -0.13 0.12 -0.12 0.12 -0.12 0.13 -0.11 0.14 -0.11 0.14 -0.1 0.15 -0.09 0.15 -0.09 0.15 -0.08 0.16 -0.07 0.17 -0.07 0.16 -0.05 0.17 -0.05 0.18 -0.04 0.18 -0.03 0.18 -0.02 0.18 -0.02 0.18 0 0 1.46 -0.11 0.01 -0.11 0.01 -0.1 0.01 -0.11 0.02 -0.1 0.02 -0.1 0.03 -0.1 0.03 -0.1 0.04 -0.09 0.04 -0.09 0.05 -0.09 0.05 -0.09 0.06 -0.08 0.06 -0.08 0.06 -0.08 0.07 -0.07 0.07 -0.07 0.07 -0.07 0.08 -0.06 0.08 -0.06 0.08 -0.06 0.09 -0.05 0.09 -0.05 0.09 -0.04 0.09 -0.04 0.1 -0.03 0.1 -0.03 0.1 -0.02 0.1 -0.02 0.11 -0.01 0.1 -0.01 0.11 -0.01 0.11 0 0zm-1.46 39.64l0 -39.64 1.46 0 0 39.64 0 0 -1.46 0zm3.59 2.12l0 1.47 0 0 -0.18 0 -0.18 -0.02 -0.19 -0.02 -0.17 -0.03 -0.18 -0.04 -0.17 -0.05 -0.16 -0.06 -0.17 -0.06 -0.16 -0.07 -0.15 -0.08 -0.15 -0.09 -0.15 -0.09 -0.14 -0.1 -0.14 -0.11 -0.12 -0.11 -0.13 -0.12 -0.12 -0.12 -0.11 -0.13 -0.11 -0.14 -0.1 -0.14 -0.09 -0.14 -0.09 -0.16 -0.08 -0.15 -0.07 -0.16 -0.07 -0.17 -0.05 -0.16 -0.05 -0.17 -0.04 -0.18 -0.03 -0.18 -0.02 -0.17 -0.02 -0.18 0 -0.19 1.46 0 0.01 0.11 0.01 0.11 0.01 0.11 0.02 0.1 0.02 0.1 0.03 0.1 0.03 0.1 0.04 0.1 0.04 0.09 0.05 0.09 0.05 0.09 0.06 0.09 0.06 0.08 0.06 0.08 0.07 0.08 0.07 0.07 0.07 0.07 0.08 0.07 0.08 0.06 0.08 0.06 0.09 0.06 0.09 0.05 0.09 0.04 0.09 0.05 0.1 0.04 0.1 0.03 0.1 0.03 0.1 0.02 0.11 0.02 0.1 0.01 0.11 0.01 0.11 0 0 0zm14.45 1.47l-14.45 0 0 -1.47 14.45 0 0 0 0 1.47zm2.12 -3.59l1.47 0 0 0 0 0.18 -0.02 0.19 -0.02 0.18 -0.03 0.17 -0.04 0.18 -0.05 0.17 -0.06 0.16 -0.06 0.17 -0.07 0.16 -0.08 0.15 -0.09 0.15 -0.09 0.15 -0.1 0.14 -0.11 0.14 -0.11 0.12 -0.12 0.13 -0.13 0.12 -0.12 0.11 -0.14 0.11 -0.14 0.1 -0.15 0.09 -0.15 0.09 -0.15 0.08 -0.16 0.07 -0.17 0.06 -0.16 0.06 -0.17 0.05 -0.18 0.04 -0.17 0.03 -0.18 0.02 -0.19 0.02 -0.18 0 0 -1.47 0.11 0 0.11 -0.01 0.1 -0.01 0.11 -0.02 0.1 -0.02 0.1 -0.03 0.1 -0.03 0.1 -0.04 0.09 -0.04 0.09 -0.05 0.09 -0.05 0.09 -0.06 0.08 -0.06 0.08 -0.06 0.08 -0.07 0.07 -0.07 0.07 -0.07 0.07 -0.08 0.06 -0.08 0.06 -0.08 0.06 -0.09 0.05 -0.09 0.05 -0.09 0.04 -0.09 0.03 -0.1 0.04 -0.1 0.03 -0.1 0.02 -0.1 0.02 -0.11 0.01 -0.1 0.01 -0.11 0 -0.11 0 0zm1.47 -39.64l0 39.64 -1.47 0 0 -39.64 0 0 1.47 0zm-3.59 -2.13l0 -1.46 0 0 0.19 0 0.18 0.02 0.17 0.02 0.18 0.03 0.18 0.04 0.17 0.05 0.16 0.05 0.17 0.07 0.16 0.07 0.15 0.08 0.15 0.09 0.15 0.09 0.14 0.1 0.14 0.11 0.13 0.11 0.12 0.12 0.12 0.13 0.11 0.12 0.11 0.14 0.1 0.14 0.09 0.15 0.09 0.15 0.08 0.15 0.07 0.16 0.06 0.17 0.06 0.16 0.05 0.17 0.04 0.18 0.03 0.17 0.02 0.19 0.02 0.18 0 0.18 -1.47 0 0 -0.11 -0.01 -0.11 -0.01 -0.1 -0.02 -0.11 -0.02 -0.1 -0.03 -0.1 -0.04 -0.1 -0.03 -0.1 -0.05 -0.09 -0.04 -0.09 -0.05 -0.09 -0.06 -0.09 -0.06 -0.08 -0.06 -0.08 -0.07 -0.08 -0.07 -0.07 -0.07 -0.07 -0.08 -0.07 -0.08 -0.06 -0.08 -0.06 -0.09 -0.06 -0.09 -0.05 -0.09 -0.05 -0.09 -0.04 -0.1 -0.04 -0.1 -0.03 -0.1 -0.03 -0.1 -0.02 -0.1 -0.02 -0.11 -0.01 -0.11 -0.01 -0.11 -0.01 0 0z"/>
  </g>
  <path class="fil0" d="M1344.18 37.65l-9.97 0c-1.23,0 -2.23,-0.99 -2.23,-2.23l0 -6.26c0,-1.23 1,-2.23 2.23,-2.23l9.97 0c1.23,0 2.23,1 2.23,2.23l0 6.26c0,1.24 -1,2.23 -2.23,2.23z"/>
  <path class="fil1" d="M1337.8 26.93l-5.66 9.3c0.32,0.83 1.13,1.42 2.07,1.42l1.73 0 6.54 -10.72 -4.68 0z"/>
  <polygon class="fil9" points="1137.64,56.58 1357.95,56.58 1357.95,52.93 1137.64,52.93 "/>
  <polygon class="fil9" points="1137.64,62.98 1357.95,62.98 1357.95,59.32 1137.64,59.32 "/>
 </g>
</svg>
